<!DOCTYPE svg PUBLIC "-//W3C//DTD SVG 20010904//EN" "http://www.w3.org/TR/2001/REC-SVG-20010904/DTD/svg10.dtd">
<svg version="1.0" xmlns="http://www.w3.org/2000/svg" width="90px" height="90px" viewBox="0 0 900 900" preserveAspectRatio="xMidYMid meet">
<g id="layer101" fill="#0a0403" stroke="none">
 <path d="M0 450 l0 -450 450 0 450 0 0 450 0 450 -450 0 -450 0 0 -450z"/>
 </g>
<g id="layer102" fill="#2d140e" stroke="none">
 <path d="M0 450 l0 -450 218 0 c138 0 212 4 202 10 -8 5 -12 11 -10 14 19 18 115 76 150 90 52 21 110 64 110 82 0 7 6 17 13 21 8 4 19 17 25 28 14 25 15 6 2 -50 -11 -49 -6 -56 14 -18 26 51 56 187 42 195 -6 5 -14 -1 -18 -15 -4 -15 -6 -8 -7 23 -2 61 -19 32 -22 -39 -3 -68 -15 -74 -23 -10 -5 33 -11 49 -19 46 -7 -2 -23 -7 -37 -11 l-25 -7 22 17 c13 9 23 22 23 29 0 8 6 15 13 18 7 2 12 23 12 58 0 70 -39 150 -111 228 -61 67 -73 91 -66 144 5 43 9 44 85 18 84 -29 198 -116 183 -139 -3 -5 -1 -14 5 -22 7 -12 9 -11 9 5 0 14 3 16 12 7 16 -16 15 -321 -1 -392 -7 -30 -20 -86 -29 -125 -23 -101 -78 -154 -147 -141 -38 7 -55 -7 -28 -23 14 -8 6 -10 -34 -11 -29 0 -53 -4 -53 -9 0 -5 -12 -12 -27 -14 -16 -2 72 -5 195 -6 l222 -1 0 450 0 450 -450 0 -450 0 0 -450z m285 365 c-17 -56 -19 -108 -5 -135 7 -14 3 -33 -17 -77 -20 -43 -28 -79 -31 -140 -4 -76 -2 -87 27 -149 31 -67 104 -181 125 -197 6 -5 -1 -7 -16 -4 -15 2 -25 0 -22 -5 3 -5 -7 -6 -23 -2 -26 7 -27 6 -13 -11 14 -17 13 -18 -7 -13 -22 6 -22 5 3 -28 l26 -33 -44 15 c-52 18 -114 60 -140 94 -10 14 -29 54 -42 90 -13 36 -40 107 -60 159 -39 103 -49 184 -19 160 15 -13 15 -12 5 8 -15 27 15 118 34 102 8 -7 11 -2 9 16 -5 45 10 26 29 -38 10 -34 25 -73 33 -87 l14 -25 -6 25 c-17 65 -34 187 -28 200 4 10 9 1 13 -25 l7 -40 2 47 c0 26 5 49 9 52 4 3 7 -45 6 -106 -2 -61 1 -119 6 -128 6 -11 5 -21 -3 -29 -8 -8 -7 -15 4 -27 14 -13 16 -9 18 43 2 53 14 165 28 266 3 20 9 37 14 37 5 0 9 -17 9 -37 l1 -38 15 45 c14 39 41 76 50 67 2 -2 -3 -25 -11 -52z m-98 -42 c-3 -10 -5 -4 -5 12 0 17 2 24 5 18 2 -7 2 -21 0 -30z m-20 -280 c-4 -3 -7 0 -7 7 0 7 3 10 7 7 3 -4 3 -10 0 -14z m440 -120 c-4 -3 -7 0 -7 7 0 7 3 10 7 7 3 -4 3 -10 0 -14z m-224 -19 c-2 -7 -13 -10 -24 -7 -27 7 -24 18 5 18 13 0 22 -5 19 -11z m290 -31 c-7 -2 -19 -2 -25 0 -7 3 -2 5 12 5 14 0 19 -2 13 -5z"/>
 <path d="M767 617 c-11 -29 -9 -53 4 -40 6 6 9 21 7 34 -3 21 -4 22 -11 6z"/>
 </g>
<g id="layer103" fill="#4a1a0f" stroke="none">
 <path d="M0 450 l0 -450 213 0 c116 0 208 4 202 8 -5 4 -11 22 -13 39 -2 31 -1 32 29 26 22 -4 38 0 57 14 15 11 45 26 67 33 55 17 112 73 120 119 3 20 9 46 12 59 4 19 1 22 -23 23 -16 0 -38 4 -49 9 -15 7 -8 9 25 7 35 -2 45 2 48 15 3 14 -4 17 -39 15 -27 -1 -43 2 -45 11 -1 7 0 8 2 3 7 -14 44 -1 44 16 0 8 7 21 15 29 45 45 -3 187 -97 289 -59 65 -79 106 -71 149 5 26 8 28 43 22 89 -14 208 -87 254 -156 21 -31 25 -48 27 -145 5 -162 -1 -334 -10 -310 -7 16 -11 9 -25 -37 -20 -68 -20 -81 -1 -48 11 20 14 21 15 7 0 -21 -78 -108 -112 -125 -71 -35 -129 -56 -173 -62 -31 -5 31 -8 168 -9 l217 -1 0 450 0 450 -450 0 -450 0 0 -450z m284 365 c-20 -67 -8 -135 23 -135 14 0 13 -3 -1 -22 -74 -104 -90 -234 -40 -343 28 -63 98 -171 124 -192 13 -12 13 -15 -3 -27 -11 -8 -26 -12 -35 -9 -13 3 -13 1 2 -11 11 -9 16 -17 10 -17 -5 -1 -13 -2 -19 -4 -5 -1 -14 -3 -19 -3 -5 -1 -2 -9 5 -18 12 -15 11 -16 -11 -9 -95 28 -171 84 -196 144 -9 20 -38 96 -66 170 -44 117 -50 140 -45 186 7 73 49 155 112 223 53 57 115 102 115 83 0 -6 12 1 26 16 14 14 27 23 29 21 2 -2 -2 -26 -11 -53z m71 -446 c4 -6 13 -8 21 -5 8 3 14 1 14 -5 0 -6 6 -7 13 -3 9 6 9 4 0 -6 -15 -16 -64 -3 -71 18 -5 15 14 16 23 1z m452 -146 c-4 -3 -7 0 -7 7 0 7 3 10 7 7 3 -4 3 -10 0 -14z m-412 -202 c-3 -6 -11 -8 -17 -5 -6 4 -5 9 3 15 16 10 23 4 14 -10z"/>
 <path d="M161 754 c0 -11 3 -14 6 -6 3 7 2 16 -1 19 -3 4 -6 -2 -5 -13z"/>
 <path d="M170 580 c0 -7 3 -10 7 -7 3 4 3 10 0 14 -4 3 -7 0 -7 -7z"/>
 <path d="M741 304 c-13 -29 -28 -122 -18 -114 7 7 38 133 33 137 -1 2 -8 -9 -15 -23z"/>
 </g>
<g id="layer104" fill="#322826" stroke="none">
 <path d="M0 450 l0 -450 213 0 c133 0 207 4 197 9 -8 6 -18 7 -22 5 -10 -6 -38 20 -38 35 0 12 -13 15 -23 4 -4 -3 -1 -13 6 -21 10 -13 8 -14 -13 -7 -95 28 -171 84 -196 144 -9 20 -38 96 -66 170 -44 117 -50 140 -45 186 7 73 49 155 112 223 53 57 115 102 115 83 0 -6 12 1 26 16 14 14 27 23 29 21 2 -2 -3 -28 -12 -58 -19 -71 -6 -115 32 -108 29 6 34 -12 9 -32 -35 -30 -67 -101 -70 -158 -2 -31 -6 -73 -9 -93 -5 -28 -1 -47 19 -85 14 -27 26 -52 26 -57 0 -10 76 -125 103 -154 l20 -23 -24 -9 c-13 -5 -19 -10 -14 -11 78 -9 86 -8 114 15 16 14 36 25 44 25 31 0 87 31 104 58 10 15 21 29 25 32 4 3 10 29 14 58 l7 52 -29 1 c-16 0 -38 4 -49 9 -16 8 -12 9 20 9 60 -1 65 0 59 14 -3 8 -18 11 -43 9 -37 -4 -62 10 -41 23 5 3 10 2 10 -3 0 -6 9 -8 21 -5 13 4 19 12 16 23 -2 10 4 22 16 29 16 11 19 21 15 64 -6 74 -47 154 -111 220 -59 61 -83 112 -72 154 6 24 9 25 47 19 67 -11 161 -61 217 -117 61 -60 74 -88 72 -146 -5 -86 -8 -191 -10 -278 -2 -56 -5 -82 -10 -70 -7 16 -11 9 -25 -37 -20 -68 -20 -81 -1 -48 11 20 14 21 15 7 0 -21 -78 -108 -112 -125 -71 -35 -129 -56 -173 -62 -31 -5 31 -8 168 -9 l217 -1 0 450 0 450 -450 0 -450 0 0 -450z m450 170 c-20 -13 -43 -13 -35 0 3 6 16 10 28 10 18 0 19 -2 7 -10z m-95 -251 c4 -6 13 -8 21 -5 8 3 14 1 14 -4 0 -5 7 -6 17 -3 11 4 14 3 9 -5 -13 -22 -86 -6 -86 18 0 13 17 13 25 -1z m98 -46 c-7 -2 -19 -2 -25 0 -7 3 -2 5 12 5 14 0 19 -2 13 -5z m-46 -10 c-4 -3 -10 -3 -14 0 -3 4 0 7 7 7 7 0 10 -3 7 -7z m400 -90 c-4 -3 -7 0 -7 7 0 7 3 10 7 7 3 -4 3 -10 0 -14z"/>
 <path d="M161 754 c0 -11 3 -14 6 -6 3 7 2 16 -1 19 -3 4 -6 -2 -5 -13z"/>
 <path d="M170 580 c0 -7 3 -10 7 -7 3 4 3 10 0 14 -4 3 -7 0 -7 -7z"/>
 <path d="M741 304 c-13 -29 -28 -122 -18 -114 7 7 38 133 33 137 -1 2 -8 -9 -15 -23z"/>
 <path d="M345 80 c3 -5 8 -10 11 -10 2 0 4 5 4 10 0 6 -5 10 -11 10 -5 0 -7 -4 -4 -10z"/>
 <path d="M371 56 c-7 -8 -8 -17 -3 -20 6 -3 15 1 21 8 7 8 8 17 3 20 -6 3 -15 -1 -21 -8z"/>
 </g>
<g id="layer105" fill="#542718" stroke="none">
 <path d="M1 693 c1 -200 1 -206 14 -146 18 83 58 156 121 218 49 49 150 112 162 101 3 -3 0 -23 -7 -43 -7 -21 -11 -56 -9 -78 3 -36 6 -40 31 -40 30 1 35 -16 11 -35 -35 -30 -67 -101 -70 -158 -2 -31 -6 -73 -9 -93 -5 -28 -1 -47 19 -85 14 -27 26 -52 26 -57 0 -10 76 -125 102 -154 19 -20 19 -21 1 -32 -10 -6 -14 -11 -9 -11 5 0 1 -9 -8 -19 -10 -11 -13 -21 -7 -25 10 -6 26 11 26 29 0 6 17 10 37 10 24 0 44 8 60 23 14 12 31 22 40 22 32 0 88 31 105 58 10 15 21 29 25 32 4 3 10 29 14 58 l7 52 -29 1 c-16 0 -38 4 -49 9 -16 8 -12 9 20 9 60 -1 65 0 60 14 -3 7 -23 12 -48 12 -30 0 -42 4 -42 15 0 8 8 16 19 18 10 2 16 0 13 -5 -4 -5 1 -10 9 -10 10 0 14 7 11 17 -2 10 4 22 16 29 16 11 19 21 15 64 -6 75 -47 154 -112 221 -58 60 -87 123 -72 161 16 43 181 -22 266 -105 57 -56 73 -88 71 -145 -1 -22 -3 -114 -5 -205 -2 -102 -8 -182 -16 -209 -27 -86 -158 -179 -280 -200 -42 -7 -6 -9 158 -10 l212 -1 0 450 0 450 -450 0 -450 0 1 -207z m449 -73 c-20 -13 -43 -13 -35 0 3 6 16 10 28 10 18 0 19 -2 7 -10z m-45 -258 c19 -10 19 -11 1 -18 -21 -8 -68 6 -73 22 -5 15 45 12 72 -4z m48 -39 c-7 -2 -19 -2 -25 0 -7 3 -2 5 12 5 14 0 19 -2 13 -5z m-46 -10 c-4 -3 -10 -3 -14 0 -3 4 0 7 7 7 7 0 10 -3 7 -7z"/>
 <path d="M1 243 l-1 -243 206 0 c128 0 203 4 199 10 -3 5 -12 7 -20 3 -8 -3 -15 0 -15 6 0 7 -9 9 -24 5 -29 -7 -98 22 -160 66 -46 33 -52 46 -160 330 l-25 65 0 -242z"/>
 <path d="M792 245 c0 -16 2 -22 5 -12 2 9 2 23 0 30 -3 6 -5 -1 -5 -18z"/>
 </g>
<g id="layer106" fill="#603022" stroke="none">
 <path d="M1 693 c1 -200 1 -206 14 -146 18 83 58 156 121 218 49 49 150 112 162 100 3 -3 0 -20 -6 -38 -7 -19 -12 -49 -12 -68 0 -33 2 -35 37 -37 21 -2 39 -5 42 -7 2 -3 11 1 20 8 9 6 -10 -16 -41 -51 -57 -62 -81 -113 -71 -151 3 -11 -2 -41 -10 -66 -17 -47 -9 -98 18 -120 6 -5 15 -25 18 -43 7 -33 79 -148 106 -168 8 -6 12 -18 8 -28 -6 -15 10 -22 38 -16 6 1 15 3 22 4 7 1 20 10 31 19 10 9 26 17 35 17 62 0 127 74 142 160 7 39 6 40 -23 40 -17 0 -37 3 -46 6 -30 12 -16 19 29 16 28 -3 45 0 45 7 0 6 -17 11 -39 11 -42 0 -74 23 -45 34 22 8 36 8 30 -2 -3 -5 2 -9 10 -9 8 0 13 7 12 16 -2 9 5 24 16 35 42 42 -8 186 -97 279 -56 58 -92 131 -81 162 6 14 15 16 51 11 93 -12 213 -87 268 -166 l29 -42 -3 -172 c-2 -176 -11 -271 -30 -318 -27 -70 -163 -159 -271 -177 -42 -7 -6 -9 158 -10 l212 -1 0 450 0 450 -450 0 -450 0 1 -207z m454 -73 c-3 -5 -15 -10 -26 -10 -11 0 -17 5 -14 10 3 6 15 10 26 10 11 0 17 -4 14 -10z m102 4 c-3 -3 -12 -4 -19 -1 -8 3 -5 6 6 6 11 1 17 -2 13 -5z m-70 -71 c-4 -3 -10 -3 -14 0 -3 4 0 7 7 7 7 0 10 -3 7 -7z m-137 -174 c0 -5 8 -9 18 -8 21 3 52 -10 52 -22 0 -5 -15 -9 -34 -9 -35 0 -71 24 -61 41 8 12 25 11 25 -2z m100 -13 c0 -3 -5 -8 -12 -12 -7 -4 -8 -3 -4 4 7 12 16 16 16 8z m-5 -45 c-11 -5 -38 -11 -60 -14 l-40 -6 35 14 c19 7 46 14 60 14 22 0 23 -1 5 -8z"/>
 <path d="M1 243 l-1 -243 208 1 c197 1 204 1 146 14 -112 24 -201 83 -231 153 -38 89 -65 157 -93 237 l-29 80 0 -242z"/>
 <path d="M792 240 c0 -14 2 -19 5 -12 2 6 2 18 0 25 -3 6 -5 1 -5 -13z"/>
 <path d="M363 43 c4 -3 10 -3 14 0 3 4 0 7 -7 7 -7 0 -10 -3 -7 -7z"/>
 </g>
<g id="layer107" fill="#33463f" stroke="none">
 <path d="M1 693 c1 -200 1 -206 14 -146 18 83 58 156 121 218 49 49 150 112 162 101 3 -3 -1 -24 -8 -46 -23 -69 16 -115 62 -73 17 15 18 15 18 -2 0 -12 5 -15 16 -11 15 6 15 4 3 -11 -8 -10 -19 -22 -25 -28 -7 -5 -28 -32 -48 -58 -26 -35 -36 -59 -36 -85 0 -20 -7 -59 -15 -86 -19 -62 -11 -116 17 -116 15 0 19 -6 17 -27 -1 -16 1 -39 6 -53 11 -35 81 -136 105 -153 11 -8 18 -16 15 -18 -2 -3 11 -6 29 -7 20 -2 38 4 46 13 7 8 19 15 28 15 9 0 34 9 57 20 32 16 46 31 63 68 30 68 32 106 7 110 -48 7 -65 13 -65 22 0 6 19 7 45 3 28 -3 45 -2 45 5 0 5 -15 10 -34 9 -40 -1 -75 21 -54 34 17 11 41 11 34 1 -3 -5 2 -9 10 -9 11 0 14 7 9 24 -3 13 -1 23 5 23 19 0 28 45 19 95 -13 70 -42 122 -101 185 -53 55 -100 143 -91 167 13 33 134 1 223 -58 77 -52 144 -138 142 -182 -7 -192 -22 -390 -33 -426 -25 -84 -139 -169 -262 -196 -60 -13 -54 -13 146 -14 l207 -1 0 450 0 450 -450 0 -450 0 1 -207z m464 -73 c-3 -5 -21 -10 -38 -10 -24 0 -28 3 -17 10 20 13 63 13 55 0z m88 3 c-7 -2 -19 -2 -25 0 -7 3 -2 5 12 5 14 0 19 -2 13 -5z m-66 -70 c-4 -3 -10 -3 -14 0 -3 4 0 7 7 7 7 0 10 -3 7 -7z m-134 -169 c-4 -11 0 -15 13 -13 10 1 27 -1 37 -6 9 -4 24 -4 33 -1 14 5 15 4 4 -9 -16 -19 -80 -20 -106 0 -19 15 -19 15 0 30 25 19 27 19 19 -1z m107 -53 c0 -11 -15 -16 -75 -26 -50 -8 -42 1 16 19 56 18 59 18 59 7z m-133 -18 c-4 -3 -10 -3 -14 0 -3 4 0 7 7 7 7 0 10 -3 7 -7z"/>
 <path d="M0 243 l0 -243 208 1 c197 1 204 1 146 14 -118 25 -202 83 -237 164 -26 56 -33 75 -87 226 l-29 80 -1 -242z"/>
 <path d="M791 234 c0 -11 3 -14 6 -6 3 7 2 16 -1 19 -3 4 -6 -2 -5 -13z"/>
 </g>
<g id="layer108" fill="#733927" stroke="none">
 <path d="M1 698 l0 -203 17 65 c31 119 107 218 213 279 30 17 58 31 63 31 4 0 6 -30 5 -67 -4 -59 -2 -68 14 -71 10 -2 27 4 38 14 18 16 19 16 19 -1 0 -12 5 -15 16 -11 15 6 15 4 3 -11 -8 -10 -19 -22 -25 -28 -7 -5 -28 -32 -48 -58 -26 -35 -36 -59 -36 -85 0 -20 -7 -59 -15 -86 -19 -62 -11 -116 17 -116 15 0 19 -6 17 -27 -1 -16 1 -39 6 -53 11 -35 81 -136 105 -153 11 -8 18 -16 15 -18 -2 -3 11 -6 29 -7 20 -2 38 4 46 13 7 8 19 15 28 15 9 0 34 9 57 20 32 16 46 31 63 68 30 68 32 106 7 110 -48 7 -65 13 -65 22 0 6 19 7 45 3 28 -3 45 -2 45 5 0 5 -15 10 -34 9 -43 -1 -71 19 -55 39 13 16 39 19 39 4 0 -5 5 -10 11 -10 6 0 8 9 4 20 -4 12 -2 20 5 20 19 0 28 45 19 95 -13 70 -42 122 -101 185 -54 56 -100 143 -90 168 8 23 93 9 169 -28 80 -40 160 -116 191 -183 20 -42 21 -50 8 -75 -9 -19 -15 -78 -18 -193 -4 -146 -7 -171 -27 -212 -38 -79 -139 -147 -255 -172 -58 -13 -51 -13 147 -14 l207 -1 0 450 0 450 -450 0 -450 0 1 -202z m464 -78 c-3 -5 -21 -10 -38 -10 -24 0 -28 3 -17 10 20 13 63 13 55 0z m88 3 c-7 -2 -19 -2 -25 0 -7 3 -2 5 12 5 14 0 19 -2 13 -5z m-66 -70 c-4 -3 -10 -3 -14 0 -3 4 0 7 7 7 7 0 10 -3 7 -7z m396 -135 c4 -38 1 -71 -8 -95 -14 -37 -14 -36 -14 52 0 50 -2 100 -5 112 -2 12 -2 32 2 45 5 20 7 17 13 -17 4 -22 9 -66 12 -97z m-530 -34 c-5 -14 -1 -15 27 -9 25 5 31 4 25 -5 -6 -10 -1 -12 19 -8 21 4 24 3 15 -8 -15 -19 -80 -18 -105 1 -19 15 -19 15 0 30 25 19 27 19 19 -1z m107 -53 c0 -11 -15 -16 -75 -26 -50 -8 -42 1 16 19 56 18 59 18 59 7z m-133 -18 c-4 -3 -10 -3 -14 0 -3 4 0 7 7 7 7 0 10 -3 7 -7z"/>
 <path d="M0 243 l0 -243 208 1 c197 1 204 1 146 14 -104 22 -195 79 -226 139 -21 41 -47 108 -99 251 l-28 80 -1 -242z"/>
 </g>
<g id="layer109" fill="#3b534b" stroke="none">
 <path d="M1 698 l0 -203 17 65 c31 119 107 218 213 279 30 17 57 31 62 31 4 0 7 -29 7 -64 0 -36 4 -68 10 -71 6 -3 10 -2 10 4 0 6 12 17 27 25 24 12 30 12 51 -2 l23 -15 -34 -36 c-54 -58 -100 -128 -94 -145 4 -9 -3 -41 -13 -72 -21 -59 -24 -91 -14 -118 8 -21 21 -20 51 4 31 24 45 26 36 4 -5 -14 -1 -15 27 -9 24 5 31 4 25 -5 -5 -8 0 -11 16 -8 15 2 23 9 21 18 -3 12 -1 13 10 2 11 -11 10 -16 -6 -28 -17 -12 -18 -14 -3 -14 20 0 23 -16 3 -23 -20 -8 -114 -18 -96 -11 8 4 26 11 40 17 24 10 22 11 -20 17 -58 9 -80 2 -54 -17 16 -12 16 -13 1 -13 -16 0 -16 -2 -2 -30 8 -16 15 -35 15 -43 0 -15 58 -98 77 -110 6 -4 19 -14 27 -22 20 -20 33 -19 63 5 14 11 34 20 45 20 52 0 108 58 108 112 0 13 7 34 16 46 8 12 14 22 12 23 -2 0 -19 3 -38 6 -35 4 -79 33 -51 33 11 0 11 3 1 15 -10 12 -10 18 0 30 15 18 37 20 43 3 2 -7 8 -10 12 -6 4 4 3 14 -4 22 -9 11 -7 15 10 19 20 5 21 11 17 64 -5 77 -43 156 -106 220 -39 40 -102 145 -102 169 0 1 26 2 58 1 115 -4 268 -109 320 -220 20 -42 21 -50 8 -75 -9 -19 -15 -78 -18 -193 -4 -146 -7 -171 -27 -212 -38 -79 -139 -147 -255 -172 -58 -13 -51 -13 147 -14 l207 -1 0 450 0 450 -450 0 -450 0 1 -202z m464 -78 c-3 -5 -20 -10 -36 -10 -18 0 -28 4 -24 10 3 6 20 10 36 10 18 0 28 -4 24 -10z m98 3 c-7 -2 -21 -2 -30 0 -10 3 -4 5 12 5 17 0 24 -2 18 -5z m-70 -70 c-7 -2 -19 -2 -25 0 -7 3 -2 5 12 5 14 0 19 -2 13 -5z m390 -135 c4 -38 1 -71 -8 -95 -14 -37 -14 -36 -14 52 0 50 -2 100 -5 112 -2 12 -2 32 2 45 5 20 7 17 13 -17 4 -22 9 -66 12 -97z"/>
 <path d="M1 243 l-1 -243 208 1 c199 1 205 1 145 14 -69 15 -151 56 -193 95 -14 14 -39 57 -54 95 -15 39 -38 95 -51 125 -13 30 -30 78 -38 105 -15 48 -16 41 -16 -192z"/>
 <path d="M640 350 c-24 -8 -23 -8 8 -9 17 -1 32 4 32 9 0 11 -5 11 -40 0z"/>
 </g>
<g id="layer110" fill="#714532" stroke="none">
 <path d="M1 698 c1 -147 4 -191 10 -158 14 73 68 171 124 225 53 52 148 110 164 101 5 -3 7 -32 4 -65 -4 -38 -2 -61 6 -65 6 -4 11 -3 11 3 0 6 12 17 27 25 24 12 30 12 51 -2 l23 -15 -34 -36 c-54 -58 -100 -128 -94 -145 4 -9 -3 -41 -13 -72 -21 -59 -24 -91 -14 -118 8 -21 21 -20 51 4 31 24 45 26 36 4 -4 -12 0 -14 22 -8 18 4 30 2 35 -6 10 -17 44 -4 34 12 -5 10 -3 9 7 0 12 -11 11 -15 -5 -28 -17 -12 -18 -14 -3 -14 20 0 23 -16 3 -23 -20 -8 -114 -18 -96 -11 8 4 26 11 40 17 24 10 22 11 -20 17 -58 9 -80 2 -54 -17 16 -12 16 -13 1 -13 -16 0 -16 -2 -2 -30 8 -16 15 -35 15 -43 0 -15 58 -98 77 -110 6 -4 19 -14 27 -22 20 -20 33 -19 63 5 14 11 34 20 45 20 52 0 108 58 108 112 0 13 7 34 16 46 8 12 14 22 12 23 -2 0 -19 3 -38 6 -35 4 -79 33 -51 33 11 0 11 3 1 16 -11 12 -10 18 4 32 13 14 20 14 36 4 11 -7 20 -8 20 -3 0 6 -5 13 -12 17 -7 5 -4 10 11 16 21 8 23 13 19 66 -5 76 -44 155 -106 219 -39 40 -102 145 -102 169 0 1 26 2 58 1 79 -3 177 -51 245 -119 47 -48 93 -121 101 -159 2 -8 6 -22 11 -32 4 -9 11 -41 15 -70 5 -34 8 24 9 171 l1 222 -450 0 -450 0 1 -202z m464 -78 c-3 -5 -20 -10 -36 -10 -18 0 -28 4 -24 10 3 6 20 10 36 10 18 0 28 -4 24 -10z m98 3 c-7 -2 -21 -2 -30 0 -10 3 -4 5 12 5 17 0 24 -2 18 -5z m-70 -70 c-7 -2 -19 -2 -25 0 -7 3 -2 5 12 5 14 0 19 -2 13 -5z"/>
 <path d="M841 577 c-6 -8 -10 -67 -10 -152 0 -185 -12 -234 -71 -295 -55 -57 -130 -97 -214 -115 -58 -13 -51 -13 147 -14 l207 -1 -1 223 c-1 161 -4 205 -10 160 -4 -34 -15 -74 -23 -90 -14 -26 -15 -20 -16 110 0 76 5 147 10 157 12 22 -3 36 -19 17z"/>
 <path d="M1 243 l-1 -243 208 1 c197 1 204 1 146 14 -72 16 -149 52 -190 92 -17 15 -43 60 -58 98 -15 39 -38 95 -51 125 -13 30 -30 78 -38 105 -15 48 -16 41 -16 -192z"/>
 <path d="M640 350 c-24 -8 -23 -8 8 -9 17 -1 32 4 32 9 0 11 -5 11 -40 0z"/>
 </g>
<g id="layer111" fill="#93392d" stroke="none">
 <path d="M1 698 c1 -147 4 -191 10 -158 14 73 68 171 124 225 53 52 148 110 164 100 5 -3 7 -30 4 -60 -6 -61 -2 -65 45 -38 29 17 31 17 51 -1 11 -10 26 -15 33 -11 7 3 0 -4 -16 -16 -40 -32 -116 -139 -116 -165 0 -12 -6 -39 -14 -60 -24 -68 -28 -117 -13 -138 14 -19 15 -19 42 2 32 25 57 29 49 8 -4 -11 0 -13 16 -9 13 3 25 0 30 -7 10 -17 44 -5 34 12 -5 10 -3 9 7 0 12 -11 11 -15 -5 -28 -18 -13 -18 -14 -2 -14 10 0 16 -6 14 -12 -6 -16 -83 -31 -120 -24 -33 6 -33 5 -10 -54 24 -63 59 -111 97 -136 33 -21 34 -22 72 -4 21 11 50 21 64 24 43 9 70 39 84 91 7 28 16 58 20 67 5 13 -1 18 -29 23 -34 7 -72 35 -47 35 8 0 8 6 -1 21 -11 17 -11 23 0 26 7 3 18 10 25 16 7 7 22 17 32 23 28 16 31 78 6 145 -22 58 -90 149 -128 170 -13 7 -21 14 -19 16 2 3 -7 30 -20 60 -19 43 -22 58 -13 64 7 4 -96 8 -229 9 l-242 1 1 -203z m489 78 c0 -3 -4 -8 -10 -11 -5 -3 -10 -1 -10 4 0 6 5 11 10 11 6 0 10 -2 10 -4z m-15 -156 c-28 -12 -78 -12 -70 0 3 6 25 10 48 9 33 0 38 -2 22 -9z m83 3 c-10 -2 -26 -2 -35 0 -10 3 -2 5 17 5 19 0 27 -2 18 -5z m-65 -70 c-7 -2 -19 -2 -25 0 -7 3 -2 5 12 5 14 0 19 -2 13 -5z"/>
 <path d="M533 890 c123 -21 255 -119 310 -229 25 -51 26 -56 10 -73 -13 -14 -17 -45 -20 -156 -5 -199 -15 -243 -73 -302 -55 -57 -130 -97 -214 -115 -58 -13 -51 -13 147 -14 l207 -1 -1 223 c-1 161 -4 205 -10 160 -4 -34 -15 -74 -23 -90 -15 -26 -16 -18 -12 122 2 83 5 156 7 163 5 26 20 -6 28 -64 6 -45 9 -5 10 164 l1 222 -207 -1 c-142 -1 -193 -4 -160 -9z"/>
 <path d="M1 238 l-1 -238 203 1 c141 1 189 4 159 10 -55 10 -141 50 -187 85 -44 33 -62 72 -150 314 l-23 65 -1 -237z"/>
 <path d="M635 400 c3 -5 8 -10 11 -10 3 0 2 5 -1 10 -3 6 -8 10 -11 10 -3 0 -2 -4 1 -10z"/>
 <path d="M645 350 c-18 -8 -17 -9 8 -9 16 -1 26 3 22 9 -3 6 -7 10 -8 9 -1 0 -11 -4 -22 -9z"/>
 <path d="M316 342 c-21 -21 30 -37 70 -22 15 6 25 12 23 14 -8 7 -88 14 -93 8z"/>
 </g>
<g id="layer112" fill="#565f58" stroke="none">
 <path d="M1 698 c1 -147 4 -191 10 -158 14 73 68 171 124 225 53 52 148 110 164 100 5 -3 7 -30 4 -60 -6 -61 0 -66 43 -39 21 14 29 15 52 4 15 -8 32 -12 37 -11 6 1 -7 -12 -28 -29 -20 -18 -44 -44 -51 -58 -8 -15 -24 -38 -35 -51 -12 -13 -21 -37 -21 -53 0 -16 -6 -44 -14 -62 -23 -56 -29 -109 -13 -130 14 -19 15 -19 42 2 32 25 57 29 49 8 -4 -11 0 -13 16 -9 13 4 26 0 31 -8 8 -12 12 -11 23 4 9 12 16 14 21 7 4 -6 2 -17 -5 -24 -8 -11 -8 -15 2 -19 31 -11 -13 -29 -76 -30 -36 -1 -66 -4 -66 -6 0 -2 8 -26 18 -54 22 -64 110 -158 141 -150 11 3 26 11 32 19 6 8 22 14 36 14 60 0 113 58 113 124 0 14 4 28 10 31 19 12 10 24 -25 31 -33 6 -71 34 -46 34 8 0 8 6 -1 21 -11 17 -11 23 0 26 7 3 18 10 25 17 6 7 20 15 30 19 9 4 20 14 24 23 10 26 -16 134 -42 179 -27 45 -102 125 -118 125 -6 0 -8 3 -5 6 4 3 -5 31 -18 61 -19 43 -22 58 -13 64 7 4 -96 8 -229 9 l-242 1 1 -203z m489 78 c0 -3 -4 -8 -10 -11 -5 -3 -10 -1 -10 4 0 6 5 11 10 11 6 0 10 -2 10 -4z m-3 -103 c-4 -3 -10 -3 -14 0 -3 4 0 7 7 7 7 0 10 -3 7 -7z m-7 -53 c-20 -13 -87 -13 -74 -1 9 9 74 19 84 13 2 -2 -2 -7 -10 -12z m80 10 c11 -7 7 -10 -17 -10 -18 0 -33 5 -33 10 0 13 30 13 50 0z m-65 -80 c-3 -5 -14 -8 -25 -7 -14 1 -16 5 -9 13 11 14 42 7 34 -6z"/>
 <path d="M533 890 c123 -21 255 -119 310 -229 25 -51 26 -56 10 -73 -13 -14 -17 -45 -20 -156 -5 -199 -15 -243 -73 -302 -55 -57 -130 -97 -214 -115 -58 -13 -51 -13 147 -14 l207 -1 -1 223 c-1 161 -4 205 -10 160 -4 -34 -15 -74 -23 -90 -15 -26 -16 -18 -12 122 2 83 5 156 7 163 5 26 20 -6 28 -64 6 -45 9 -5 10 164 l1 222 -207 -1 c-142 -1 -193 -4 -160 -9z"/>
 <path d="M1 238 l-1 -238 203 1 c141 1 189 4 159 10 -55 10 -141 50 -186 84 -37 28 -65 79 -104 185 -13 36 -34 94 -47 130 l-23 65 -1 -237z"/>
 <path d="M635 400 c3 -5 8 -10 11 -10 3 0 2 5 -1 10 -3 6 -8 10 -11 10 -3 0 -2 -4 1 -10z"/>
 <path d="M645 350 c-18 -8 -17 -9 8 -9 16 -1 26 3 22 9 -3 6 -7 10 -8 9 -1 0 -11 -4 -22 -9z"/>
 <path d="M317 338 c-18 -11 0 -22 38 -22 54 0 66 21 15 26 -22 2 -46 0 -53 -4z"/>
 </g>
<g id="layer113" fill="#8f4f37" stroke="none">
 <path d="M1 703 c1 -179 2 -193 13 -148 30 121 116 232 221 286 56 29 67 32 75 19 5 -8 7 -22 3 -30 -3 -8 -8 -30 -11 -47 -5 -37 6 -41 44 -17 21 14 29 15 52 4 15 -8 32 -12 37 -11 6 1 -7 -12 -28 -29 -20 -18 -44 -44 -51 -58 -8 -15 -24 -38 -35 -51 -12 -13 -21 -37 -21 -53 0 -16 -6 -44 -14 -62 -23 -56 -29 -109 -13 -130 14 -19 15 -19 42 2 27 22 61 30 51 13 -4 -5 3 -7 14 -4 13 4 26 -1 34 -12 13 -18 14 -18 23 0 7 12 12 14 17 6 4 -7 3 -18 -4 -25 -8 -11 -8 -15 2 -19 31 -11 -13 -29 -76 -30 -36 -1 -66 -4 -66 -6 0 -2 8 -26 18 -54 22 -64 110 -158 141 -150 11 3 26 11 32 19 6 8 22 14 36 14 60 0 113 58 113 124 0 14 4 28 10 31 19 12 10 24 -25 31 -33 6 -71 34 -46 34 8 0 8 6 -1 21 -11 17 -11 23 0 26 7 3 18 10 25 17 6 7 20 15 30 19 9 4 20 14 24 23 10 26 -16 134 -42 179 -27 45 -102 125 -118 125 -6 0 -8 3 -5 6 4 3 -5 31 -18 61 -19 43 -22 58 -13 64 7 4 -96 8 -229 9 l-242 1 1 -198z m489 73 c0 -3 -4 -8 -10 -11 -5 -3 -10 -1 -10 4 0 6 5 11 10 11 6 0 10 -2 10 -4z m-3 -103 c-4 -3 -10 -3 -14 0 -3 4 0 7 7 7 7 0 10 -3 7 -7z m-7 -53 c-20 -13 -87 -13 -74 -1 9 9 74 19 84 13 2 -2 -2 -7 -10 -12z m80 10 c11 -7 7 -10 -17 -10 -18 0 -33 5 -33 10 0 13 30 13 50 0z m-65 -80 c-3 -5 -14 -8 -25 -7 -14 1 -16 5 -9 13 11 14 42 7 34 -6z"/>
 <path d="M550 886 c164 -36 299 -172 335 -339 13 -60 13 -54 14 146 l1 207 -202 -1 c-183 -1 -198 -2 -148 -13z"/>
 <path d="M1 238 l-1 -238 203 1 c141 1 189 4 159 10 -53 10 -145 51 -188 84 -34 26 -64 80 -102 185 -13 36 -34 94 -47 130 l-23 65 -1 -237z"/>
 <path d="M635 400 c3 -5 8 -10 11 -10 3 0 2 5 -1 10 -3 6 -8 10 -11 10 -3 0 -2 -4 1 -10z"/>
 <path d="M887 364 c-6 -59 -60 -164 -114 -224 -47 -52 -143 -108 -218 -126 -45 -11 -30 -12 148 -13 l197 -1 0 205 c0 113 -2 205 -4 205 -2 0 -6 -21 -9 -46z"/>
 <path d="M645 350 c-18 -8 -17 -9 8 -9 16 -1 26 3 22 9 -3 6 -7 10 -8 9 -1 0 -11 -4 -22 -9z"/>
 <path d="M317 338 c-18 -11 0 -22 38 -22 54 0 66 21 15 26 -22 2 -46 0 -53 -4z"/>
 </g>
<g id="layer114" fill="#a7563c" stroke="none">
 <path d="M1 703 c1 -179 2 -193 13 -148 30 121 116 232 221 286 56 29 67 32 75 19 5 -8 7 -25 4 -37 -4 -13 -4 -30 0 -38 5 -14 10 -14 33 -2 36 16 83 11 83 -10 0 -13 3 -13 15 -3 8 7 15 19 15 26 0 8 6 11 16 7 14 -5 14 -1 -1 33 -9 22 -19 45 -22 52 -4 9 -59 12 -229 12 l-224 0 1 -197z"/>
 <path d="M550 886 c164 -36 299 -172 335 -339 13 -60 13 -54 14 146 l1 207 -202 -1 c-183 -1 -198 -2 -148 -13z"/>
 <path d="M435 741 c-40 -24 -56 -45 -87 -111 -63 -132 -85 -209 -72 -244 6 -14 10 -14 47 6 29 17 41 20 44 11 3 -7 13 -13 23 -13 10 0 21 -8 24 -17 6 -15 8 -15 16 -3 9 15 50 23 50 11 0 -3 -10 -12 -21 -20 -18 -10 -19 -15 -8 -22 25 -15 -5 -30 -70 -36 -33 -3 -61 -6 -61 -7 0 0 9 -26 21 -56 40 -105 104 -159 151 -128 13 8 39 18 58 22 59 11 80 35 89 100 4 32 13 61 20 66 8 4 -5 12 -33 19 -41 10 -64 31 -34 31 6 0 3 9 -7 20 -10 11 -16 22 -14 23 2 2 22 14 44 27 53 31 56 38 49 85 -12 85 -35 135 -91 195 -61 66 -86 74 -138 41z m45 -68 c-8 -3 -22 -10 -32 -14 -11 -6 -18 -4 -22 6 -4 12 3 15 32 14 20 0 30 -3 22 -6z m20 -43 c0 -5 -3 -10 -7 -10 -5 -1 -27 -5 -51 -9 -30 -6 -42 -5 -39 3 2 6 21 14 43 17 21 3 42 7 47 8 4 0 7 -3 7 -9z m65 0 c16 -7 13 -9 -17 -9 -21 -1 -38 4 -38 9 0 12 27 12 55 0z m-65 -70 c13 -8 13 -9 0 -14 -21 -6 -50 -4 -50 4 0 20 26 25 50 10z"/>
 <path d="M1 233 l-1 -233 203 1 c145 1 189 4 157 10 -65 13 -185 75 -212 110 -13 16 -36 44 -51 61 -21 22 -25 33 -17 38 9 6 9 13 1 29 -7 11 -9 21 -6 21 3 0 -4 19 -16 41 -11 23 -29 67 -39 98 l-19 56 0 -232z"/>
 <path d="M635 400 c3 -5 8 -10 11 -10 3 0 2 5 -1 10 -3 6 -8 10 -11 10 -3 0 -2 -4 1 -10z"/>
 <path d="M887 364 c-6 -59 -60 -164 -114 -224 -47 -52 -143 -108 -218 -126 -45 -11 -30 -12 148 -13 l197 -1 0 205 c0 113 -2 205 -4 205 -2 0 -6 -21 -9 -46z"/>
 <path d="M315 330 c3 -5 21 -10 40 -10 19 0 37 5 40 10 4 6 -12 10 -40 10 -28 0 -44 -4 -40 -10z"/>
 </g>
<g id="layer115" fill="#a46451" stroke="none">
 <path d="M1 703 c1 -179 2 -193 13 -148 30 121 116 232 221 286 72 37 89 32 78 -22 -6 -34 6 -42 40 -24 21 11 34 11 58 3 26 -9 33 -8 41 6 5 9 13 14 19 11 13 -8 12 -2 -7 45 l-16 40 -224 0 -224 0 1 -197z"/>
 <path d="M550 886 c164 -36 299 -172 335 -339 13 -60 13 -54 14 146 l1 207 -202 -1 c-183 -1 -198 -2 -148 -13z"/>
 <path d="M445 748 c-33 -18 -65 -50 -65 -65 0 -8 5 -11 11 -8 12 8 121 14 114 7 -3 -3 -14 -10 -27 -16 -41 -21 -32 -33 20 -28 29 2 58 -1 68 -7 16 -10 12 -11 -23 -9 -24 2 -44 0 -45 -3 -4 -9 -95 -15 -103 -7 -4 3 3 9 14 13 25 8 27 30 4 39 -28 11 -67 -26 -79 -75 -6 -24 -21 -63 -34 -86 -22 -43 -31 -106 -17 -120 4 -4 24 2 44 12 27 15 37 17 41 7 2 -6 11 -12 19 -12 9 0 22 -8 29 -17 13 -17 13 -17 14 0 0 22 50 24 50 2 0 -8 -7 -15 -16 -15 -13 0 -14 -3 -5 -14 18 -21 -10 -37 -77 -43 l-58 -5 16 -47 c25 -70 56 -116 94 -136 33 -18 34 -18 62 2 16 11 36 20 45 20 32 -1 77 25 88 49 6 14 11 43 11 64 0 26 6 42 17 49 14 7 8 11 -28 18 -36 7 -44 13 -43 31 0 12 -3 22 -8 22 -17 0 -7 29 12 35 11 3 20 10 20 14 0 4 11 13 25 19 20 9 25 19 25 49 0 85 -43 176 -110 237 -41 37 -70 44 -105 24z m69 -187 c7 -10 -17 -21 -45 -21 -19 0 -25 11 -12 23 9 10 51 8 57 -2z"/>
 <path d="M1 233 l-1 -233 203 1 c145 1 189 4 157 10 -66 13 -185 74 -215 112 -14 17 -37 45 -51 61 -19 20 -23 31 -14 36 9 6 9 13 1 29 -7 11 -9 21 -6 21 3 0 -4 19 -16 41 -11 23 -29 67 -39 98 l-19 56 0 -232z"/>
 <path d="M635 400 c3 -5 8 -10 11 -10 3 0 2 5 -1 10 -3 6 -8 10 -11 10 -3 0 -2 -4 1 -10z"/>
 <path d="M887 364 c-6 -59 -60 -164 -114 -224 -47 -52 -143 -108 -218 -126 -45 -11 -30 -12 148 -13 l197 -1 0 205 c0 113 -2 205 -4 205 -2 0 -6 -21 -9 -46z"/>
 <path d="M320 330 c0 -5 15 -10 34 -10 19 0 38 5 41 10 4 6 -10 10 -34 10 -23 0 -41 -4 -41 -10z"/>
 </g>
<g id="layer116" fill="#b26e53" stroke="none">
 <path d="M1 703 c1 -179 2 -193 13 -148 30 122 116 233 222 286 47 24 68 30 71 21 3 -6 9 -10 14 -6 5 3 4 -7 -1 -21 -18 -47 -11 -50 46 -23 15 7 28 7 42 -1 28 -15 32 -14 32 8 0 11 6 21 12 23 10 4 10 10 1 31 l-13 27 -220 0 -220 0 1 -197z"/>
 <path d="M555 886 c164 -40 294 -173 330 -340 13 -58 13 -51 14 147 l1 207 -197 -1 c-178 -1 -193 -2 -148 -13z"/>
 <path d="M455 750 c-11 -4 -31 -18 -43 -30 -30 -28 -17 -38 48 -36 52 2 54 0 18 -18 -38 -20 -33 -35 11 -29 22 3 52 2 68 -3 23 -6 9 -10 -67 -19 -97 -12 -118 -11 -87 6 22 13 22 25 0 33 -19 8 -63 -37 -63 -64 0 -10 -11 -37 -24 -61 -33 -58 -44 -126 -23 -135 8 -3 29 1 45 10 28 15 31 14 57 -10 24 -22 29 -23 39 -10 11 16 53 16 49 0 -18 -68 -41 -84 -119 -84 -44 0 -44 0 -30 -23 8 -12 17 -37 21 -55 9 -43 74 -112 106 -112 14 0 34 7 46 15 12 9 26 15 30 14 23 -4 45 3 68 24 21 18 28 35 34 85 l7 62 -30 8 c-42 11 -56 62 -26 92 12 12 32 25 45 30 32 12 33 52 4 145 -16 53 -31 78 -73 121 -51 53 -71 61 -111 44z m60 -190 c3 -5 -7 -12 -22 -16 -15 -3 -34 -7 -40 -10 -16 -4 -17 8 -1 24 14 14 54 16 63 2z"/>
 <path d="M1 233 l-1 -233 198 1 c191 0 195 1 143 15 -74 20 -167 71 -197 108 -14 17 -36 43 -49 59 -27 30 -31 43 -14 49 6 2 2 14 -10 30 -12 14 -21 30 -21 35 0 4 5 1 10 -7 17 -27 10 4 -8 35 -10 17 -24 50 -31 75 -7 25 -15 50 -16 55 -2 6 -4 -95 -4 -222z"/>
 <path d="M887 364 c-6 -59 -60 -164 -114 -224 -47 -52 -143 -108 -218 -126 -45 -11 -30 -12 148 -13 l197 -1 0 205 c0 113 -2 205 -4 205 -2 0 -6 -21 -9 -46z"/>
 <path d="M325 330 c-4 -6 9 -10 32 -10 28 0 34 3 23 10 -20 13 -47 13 -55 0z"/>
 </g>
<g id="layer117" fill="#6a868f" stroke="none">
 <path d="M1 703 c1 -179 2 -193 13 -148 30 121 116 232 221 286 53 27 67 31 74 20 7 -11 11 -10 21 5 10 16 11 16 6 2 -3 -10 -9 -25 -13 -34 -5 -13 -2 -15 17 -9 32 10 59 36 53 51 -3 8 6 14 24 17 15 2 -72 5 -194 6 l-223 1 1 -197z"/>
 <path d="M555 886 c164 -40 294 -173 330 -340 13 -58 13 -51 14 147 l1 207 -197 -1 c-178 -1 -193 -2 -148 -13z"/>
 <path d="M432 734 c-41 -29 -28 -44 39 -44 37 0 58 -4 54 -10 -3 -5 -16 -10 -29 -10 -20 0 -46 -16 -46 -29 0 -4 22 -4 49 -3 27 2 58 -1 68 -7 16 -9 16 -10 -6 -11 -53 0 -201 -23 -201 -30 0 -5 -16 -32 -35 -61 -35 -53 -46 -111 -25 -124 6 -3 26 0 46 7 37 13 36 14 64 -32 8 -13 11 -12 23 4 8 10 19 16 25 12 5 -3 12 0 15 6 2 7 8 9 13 5 4 -4 1 -26 -7 -50 -17 -45 -34 -54 -107 -56 -42 -1 -42 -1 -28 -24 8 -12 22 -46 31 -75 23 -70 64 -101 109 -83 17 7 45 16 61 20 72 18 79 29 88 124 4 43 3 48 -20 53 -26 7 -58 58 -49 80 3 8 9 13 13 12 4 -2 9 2 11 7 2 6 17 17 35 25 29 14 32 20 29 55 -4 73 -37 155 -81 206 -36 42 -47 49 -79 49 -21 0 -48 -7 -60 -16z m81 -179 c1 -6 -13 -11 -30 -13 -26 -3 -33 -8 -34 -25 -2 -21 -2 -21 -6 1 -6 32 23 63 49 53 11 -4 20 -11 21 -16z m34 -2 c-4 -3 -10 -3 -14 0 -3 4 0 7 7 7 7 0 10 -3 7 -7z"/>
 <path d="M385 630 c4 -6 11 -8 16 -5 14 9 11 15 -7 15 -8 0 -12 -5 -9 -10z"/>
 <path d="M0 218 l0 -218 198 1 c191 0 195 1 143 15 -91 24 -169 73 -223 137 -29 35 -47 66 -44 74 3 8 0 24 -6 36 -7 12 -13 29 -14 37 -1 8 -14 42 -28 75 l-25 60 -1 -217z"/>
 <path d="M887 364 c-6 -59 -60 -164 -114 -224 -47 -52 -143 -108 -218 -126 -45 -11 -30 -12 148 -13 l197 -1 0 205 c0 113 -2 205 -4 205 -2 0 -6 -21 -9 -46z"/>
 <path d="M343 323 c9 -2 23 -2 30 0 6 3 -1 5 -18 5 -16 0 -22 -2 -12 -5z"/>
 </g>
<g id="layer118" fill="#cf7461" stroke="none">
 <path d="M1 708 c1 -176 2 -189 14 -146 41 149 167 282 299 314 25 6 28 4 23 -10 -4 -9 -10 -23 -14 -32 -5 -13 -2 -15 17 -9 32 10 59 36 53 51 -3 8 6 14 24 17 15 2 -72 5 -194 6 l-223 1 1 -192z"/>
 <path d="M550 889 c157 -31 307 -185 339 -349 6 -32 9 12 10 158 l1 202 -197 -1 c-143 -1 -186 -4 -153 -10z"/>
 <path d="M432 734 c-41 -29 -28 -44 39 -44 37 0 58 -4 54 -10 -3 -5 -16 -10 -29 -10 -20 0 -46 -16 -46 -29 0 -4 22 -4 49 -3 27 2 58 -1 68 -7 16 -9 16 -10 -6 -11 -53 0 -201 -23 -201 -30 0 -5 -16 -32 -35 -61 -35 -53 -46 -111 -25 -124 6 -3 26 0 46 7 37 13 36 14 64 -32 8 -13 11 -12 23 4 8 10 19 16 25 12 5 -3 12 0 15 6 2 7 8 9 13 5 4 -4 1 -26 -7 -50 -17 -45 -34 -54 -107 -56 -42 -1 -42 -1 -28 -24 8 -12 22 -46 31 -75 23 -70 64 -101 109 -83 17 7 45 16 61 20 72 18 79 29 88 124 4 43 3 48 -20 53 -26 7 -58 58 -49 80 3 8 9 13 13 12 4 -2 9 2 11 7 2 6 17 17 35 25 29 14 32 20 29 55 -4 73 -37 155 -81 206 -36 42 -47 49 -79 49 -21 0 -48 -7 -60 -16z m81 -179 c1 -6 -13 -11 -30 -13 -26 -3 -33 -8 -34 -25 -2 -21 -2 -21 -6 1 -6 32 23 63 49 53 11 -4 20 -11 21 -16z m34 -2 c-4 -3 -10 -3 -14 0 -3 4 0 7 7 7 7 0 10 -3 7 -7z"/>
 <path d="M385 630 c4 -6 11 -8 16 -5 14 9 11 15 -7 15 -8 0 -12 -5 -9 -10z"/>
 <path d="M0 218 l0 -218 198 1 c180 1 193 2 147 13 -69 18 -100 31 -150 66 -52 36 -128 128 -120 148 3 7 -1 23 -7 35 -7 12 -13 29 -14 37 -1 8 -14 42 -28 75 l-25 60 -1 -217z"/>
 <path d="M886 349 c-23 -143 -166 -291 -325 -335 -42 -11 -27 -12 147 -13 l192 -1 0 195 c0 107 -2 195 -4 195 -2 0 -6 -18 -10 -41z"/>
 <path d="M343 323 c9 -2 23 -2 30 0 6 3 -1 5 -18 5 -16 0 -22 -2 -12 -5z"/>
 </g>
<g id="layer119" fill="#b9886c" stroke="none">
 <path d="M1 708 c1 -176 2 -189 14 -146 30 110 101 208 192 266 75 47 174 69 135 30 -19 -19 -14 -37 8 -31 11 3 20 12 20 19 0 8 6 13 13 11 6 -1 11 6 9 15 -2 11 6 18 25 21 15 2 -72 5 -194 6 l-223 1 1 -192z"/>
 <path d="M550 889 c157 -31 307 -185 339 -349 6 -32 9 12 10 158 l1 202 -197 -1 c-143 -1 -186 -4 -153 -10z"/>
 <path d="M440 737 c-14 -7 -26 -20 -28 -30 -3 -14 5 -17 55 -17 46 0 61 -4 70 -19 11 -18 10 -18 -18 -8 -24 9 -32 8 -46 -6 -16 -16 -14 -17 34 -17 52 0 83 -7 83 -19 0 -3 -10 -6 -22 -7 -102 -5 -183 -15 -186 -23 -2 -5 -14 -22 -28 -38 -31 -36 -66 -110 -62 -132 4 -16 15 -17 77 -5 19 4 31 3 28 -2 -3 -5 1 -18 9 -29 14 -18 14 -18 27 0 8 10 19 15 25 11 7 -4 12 -2 12 3 0 6 5 11 10 11 15 0 12 -33 -5 -67 -16 -32 -45 -43 -113 -43 -33 0 -34 -1 -20 -17 9 -10 24 -43 34 -73 19 -56 56 -100 84 -100 9 0 26 7 38 16 12 8 33 17 47 20 73 13 79 22 88 116 4 43 2 48 -22 56 -30 11 -57 53 -47 77 3 9 10 14 15 11 5 -3 11 3 14 14 3 11 14 20 24 20 31 0 41 18 32 58 -16 76 -39 147 -49 150 -5 2 -10 10 -10 17 0 8 -14 30 -31 50 -34 38 -73 46 -119 22z m75 -167 c4 -6 11 -8 16 -5 5 4 14 3 20 -1 15 -9 -58 -34 -77 -27 -8 3 -18 -4 -23 -18 -9 -23 -10 -23 -10 7 -1 16 4 35 11 42 15 15 54 16 63 2z"/>
 <path d="M385 630 c4 -6 11 -8 16 -5 14 9 11 15 -7 15 -8 0 -12 -5 -9 -10z"/>
 <path d="M0 218 l0 -218 198 1 c180 1 193 2 147 13 -69 18 -100 31 -150 66 -52 36 -128 128 -120 148 3 7 -1 23 -7 35 -7 12 -13 29 -14 37 -1 8 -14 42 -28 75 l-25 60 -1 -217z"/>
 <path d="M886 349 c-23 -143 -166 -291 -325 -335 -42 -11 -27 -12 147 -13 l192 -1 0 195 c0 107 -2 195 -4 195 -2 0 -6 -18 -10 -41z"/>
 <path d="M343 323 c9 -2 23 -2 30 0 6 3 -1 5 -18 5 -16 0 -22 -2 -12 -5z"/>
 </g>
<g id="layer120" fill="#d08d74" stroke="none">
 <path d="M1 708 c1 -176 2 -189 14 -146 41 152 157 273 295 312 30 8 69 17 85 19 17 2 -66 5 -182 6 l-213 1 1 -192z"/>
 <path d="M550 889 c157 -31 307 -185 339 -349 6 -32 9 12 10 158 l1 202 -197 -1 c-143 -1 -186 -4 -153 -10z"/>
 <path d="M436 729 c-14 -11 -24 -25 -21 -30 4 -5 32 -9 64 -9 49 0 59 -3 64 -19 4 -16 1 -17 -24 -7 -24 8 -32 7 -46 -7 -16 -16 -14 -17 34 -17 88 0 117 -24 36 -29 -27 -1 -64 -4 -83 -6 -19 -1 -41 -3 -48 -4 -34 -3 -109 -109 -114 -162 -3 -23 0 -24 51 -24 45 0 54 -3 57 -18 4 -30 11 -31 37 -3 31 33 47 33 47 1 0 -67 -40 -97 -127 -97 l-35 0 20 -21 c11 -12 25 -40 32 -62 31 -97 58 -117 118 -88 20 10 39 18 42 18 73 10 90 32 90 115 0 43 -3 50 -27 62 -15 7 -32 26 -38 41 -8 24 -6 31 10 43 10 8 15 14 9 14 -5 1 7 9 26 18 43 21 48 45 24 121 -52 167 -124 228 -198 170z m79 -159 c4 -6 11 -8 16 -5 5 4 14 3 20 -1 14 -8 -58 -35 -76 -28 -19 8 -29 -14 -15 -31 8 -10 9 -15 2 -15 -6 0 -16 9 -22 21 -9 16 -8 26 5 45 16 25 58 33 70 14z"/>
 <path d="M1 213 l-1 -213 198 1 c177 1 192 2 147 13 -109 26 -204 92 -264 183 -34 51 -40 73 -14 52 13 -11 13 -8 -3 15 -10 16 -29 59 -40 95 l-22 66 -1 -212z"/>
 <path d="M886 349 c-23 -143 -166 -291 -325 -335 -42 -11 -27 -12 147 -13 l192 -1 0 195 c0 107 -2 195 -4 195 -2 0 -6 -18 -10 -41z"/>
 <path d="M343 323 c9 -2 23 -2 30 0 6 3 -1 5 -18 5 -16 0 -22 -2 -12 -5z"/>
 </g>
<g id="layer121" fill="#9f9d9a" stroke="none">
 <path d="M1 708 c1 -176 2 -189 14 -146 22 82 57 141 119 204 68 68 125 98 218 119 61 13 57 13 -144 14 l-208 1 1 -192z"/>
 <path d="M550 889 c157 -31 307 -185 339 -349 6 -32 9 12 10 158 l1 202 -197 -1 c-143 -1 -186 -4 -153 -10z"/>
 <path d="M468 743 c-27 -4 -55 -29 -45 -40 4 -3 38 -8 77 -11 39 -2 73 -9 76 -14 3 -5 -2 -8 -12 -6 -11 2 -18 -2 -17 -9 2 -8 -5 -8 -27 0 -25 9 -33 8 -46 -5 -15 -15 -12 -16 44 -20 57 -3 61 -2 65 21 3 16 -5 34 -25 57 -30 33 -36 35 -90 27z"/>
 <path d="M488 607 c-44 -6 -68 -14 -68 -22 0 -7 -7 -12 -16 -11 -25 4 -61 -34 -84 -88 -28 -66 -27 -70 23 -63 50 7 113 -5 84 -16 -19 -7 -24 -37 -6 -37 6 0 9 7 5 15 -4 10 1 15 15 15 11 0 18 4 15 9 -5 8 15 21 30 21 3 0 4 -21 2 -46 -4 -58 -32 -83 -101 -86 -40 -3 -45 -5 -30 -15 9 -7 19 -13 22 -13 11 0 31 -79 25 -95 -8 -21 23 -55 50 -55 12 0 53 13 91 28 l70 29 5 64 c5 61 4 65 -23 81 -15 10 -33 30 -39 44 -10 22 -10 28 5 39 9 6 14 15 11 18 -3 3 10 13 30 21 34 14 36 18 35 58 0 24 -5 59 -12 78 -14 40 -27 42 -139 27z m26 -34 c4 -4 13 -8 19 -8 7 0 12 -4 12 -10 0 -5 -4 -9 -9 -7 -4 1 -20 -5 -34 -14 -18 -12 -27 -14 -30 -5 -2 6 -8 9 -13 5 -14 -8 -11 -24 6 -24 9 0 12 -6 9 -15 -9 -22 -23 -18 -36 10 -16 36 6 75 42 75 15 0 30 -3 34 -7z"/>
 <path d="M1 213 l-1 -213 198 1 c177 1 192 2 147 13 -109 26 -204 92 -264 183 -30 45 -39 69 -23 59 5 -3 -2 16 -15 41 -12 26 -23 56 -24 67 0 12 -4 30 -9 41 -5 12 -9 -65 -9 -192z"/>
 <path d="M886 349 c-23 -143 -166 -291 -325 -335 -42 -11 -27 -12 147 -13 l192 -1 0 195 c0 107 -2 195 -4 195 -2 0 -6 -18 -10 -41z"/>
 <path d="M348 323 c7 -3 16 -2 19 1 4 3 -2 6 -13 5 -11 0 -14 -3 -6 -6z"/>
 </g>
<g id="layer122" fill="#db8e70" stroke="none">
 <path d="M0 713 l1 -188 22 66 c27 79 62 132 127 193 60 56 115 84 199 101 64 13 58 13 -141 14 l-208 1 0 -187z"/>
 <path d="M582 881 c83 -27 138 -63 198 -128 57 -62 95 -134 109 -205 6 -30 9 16 10 155 l1 197 -187 -1 -188 0 57 -18z"/>
 <path d="M468 743 c-27 -4 -55 -29 -45 -40 4 -3 38 -8 77 -11 39 -2 73 -9 76 -14 3 -5 -2 -8 -12 -6 -11 2 -18 -2 -17 -9 2 -8 -5 -8 -27 0 -25 9 -33 8 -46 -5 -15 -15 -12 -16 44 -20 57 -3 61 -2 65 21 3 16 -5 34 -25 57 -30 33 -36 35 -90 27z"/>
 <path d="M488 607 c-44 -6 -68 -14 -68 -22 0 -7 -7 -12 -16 -11 -25 4 -61 -34 -84 -88 -28 -66 -27 -70 22 -63 23 3 55 3 70 0 26 -5 27 -7 11 -19 -15 -11 -16 -15 -4 -26 12 -11 13 -10 8 5 -5 12 -1 17 14 17 11 0 18 4 15 9 -5 8 15 21 30 21 3 0 4 -21 2 -46 -4 -58 -32 -83 -101 -86 -40 -3 -45 -5 -30 -15 9 -7 19 -13 22 -13 11 0 31 -79 25 -95 -8 -21 23 -55 50 -55 12 0 53 13 91 28 l70 29 5 64 c5 61 4 65 -23 81 -15 10 -33 30 -39 44 -10 22 -10 28 5 39 9 6 14 15 11 18 -3 3 10 13 30 21 34 14 36 18 35 58 0 24 -5 59 -12 78 -14 40 -27 42 -139 27z m26 -34 c4 -4 13 -8 19 -8 7 0 12 -4 12 -10 0 -5 -4 -9 -9 -7 -4 1 -20 -5 -34 -14 -18 -12 -27 -14 -30 -5 -2 6 -8 9 -13 5 -14 -8 -11 -24 6 -24 9 0 12 -6 9 -15 -9 -22 -23 -18 -36 10 -16 36 6 75 42 75 15 0 30 -3 34 -7z"/>
 <path d="M1 213 l-1 -213 188 1 187 0 -57 18 c-104 34 -179 91 -242 185 -26 39 -34 62 -18 52 5 -3 -2 16 -15 41 -12 26 -23 56 -24 67 0 12 -4 30 -9 41 -5 12 -9 -65 -9 -192z"/>
 <path d="M887 343 c-15 -91 -114 -227 -204 -280 -24 -14 -70 -34 -101 -44 l-57 -18 188 0 187 -1 0 190 c0 105 -2 190 -4 190 -2 0 -6 -17 -9 -37z"/>
 <path d="M348 323 c7 -3 16 -2 19 1 4 3 -2 6 -13 5 -11 0 -14 -3 -6 -6z"/>
 </g>
<g id="layer123" fill="#d79b86" stroke="none">
 <path d="M0 713 l1 -188 22 66 c27 79 62 132 127 193 60 56 115 84 199 101 64 13 58 13 -141 14 l-208 1 0 -187z"/>
 <path d="M582 881 c83 -27 138 -63 198 -128 57 -62 95 -134 109 -205 6 -30 9 16 10 155 l1 197 -187 -1 -188 0 57 -18z"/>
 <path d="M468 743 c-27 -4 -55 -29 -45 -40 12 -11 147 -16 147 -5 0 14 -49 52 -64 51 -6 -1 -23 -4 -38 -6z"/>
 <path d="M550 662 c0 -5 7 -16 16 -23 14 -12 16 -11 13 5 -4 20 -29 35 -29 18z"/>
 <path d="M466 651 c-3 -5 12 -8 33 -7 22 0 37 4 35 8 -7 11 -62 10 -68 -1z"/>
 <path d="M493 606 c-55 -7 -73 -13 -73 -24 0 -8 -3 -12 -7 -8 -10 10 -83 -65 -99 -103 -21 -50 -19 -54 28 -48 23 3 55 3 70 0 26 -5 27 -7 11 -19 -15 -11 -16 -15 -4 -26 12 -11 13 -10 8 5 -5 12 -1 17 14 17 11 0 18 4 15 9 -5 8 15 21 30 21 3 0 4 -21 2 -46 -4 -58 -32 -83 -101 -86 -40 -3 -45 -5 -30 -15 9 -7 19 -13 22 -13 11 0 31 -79 25 -95 -9 -22 24 -55 53 -55 13 0 34 5 46 12 12 7 42 19 67 28 l45 15 5 65 c5 63 4 66 -23 82 -15 10 -33 30 -39 44 -10 22 -10 28 5 39 9 6 14 15 11 18 -3 3 10 13 30 21 42 18 45 34 19 117 -20 63 -11 60 -130 45z m27 -25 c0 -5 9 -11 20 -14 11 -3 20 -11 20 -17 0 -7 -7 -10 -16 -6 -8 3 -25 -1 -38 -9 -13 -9 -31 -13 -40 -9 -9 3 -16 1 -16 -5 0 -6 7 -11 15 -11 9 0 12 -6 9 -15 -9 -22 -23 -18 -36 10 -15 34 5 72 41 78 14 2 29 5 34 6 4 0 7 -3 7 -8z"/>
 <path d="M1 213 l-1 -213 188 1 187 0 -57 18 c-104 34 -179 91 -242 185 -26 39 -34 62 -18 52 5 -3 -2 16 -15 41 -12 26 -23 56 -24 67 0 12 -4 30 -9 41 -5 12 -9 -65 -9 -192z"/>
 <path d="M887 343 c-15 -91 -114 -227 -204 -280 -24 -14 -70 -34 -101 -44 l-57 -18 188 0 187 -1 0 190 c0 105 -2 190 -4 190 -2 0 -6 -17 -9 -37z"/>
 <path d="M348 323 c7 -3 16 -2 19 1 4 3 -2 6 -13 5 -11 0 -14 -3 -6 -6z"/>
 </g>
<g id="layer124" fill="#e4a894" stroke="none">
 <path d="M0 713 l1 -188 22 66 c27 79 62 132 127 193 58 55 114 84 194 101 58 13 52 13 -141 14 l-203 1 0 -187z"/>
 <path d="M582 881 c83 -27 138 -63 198 -128 57 -62 95 -134 109 -205 6 -30 9 16 10 155 l1 197 -187 -1 -188 0 57 -18z"/>
 <path d="M473 739 c-43 -12 -50 -27 -19 -39 32 -12 95 -10 103 3 3 6 -4 19 -17 29 -25 20 -23 20 -67 7z"/>
 <path d="M466 651 c-3 -5 12 -8 33 -7 22 0 37 4 35 8 -7 11 -62 10 -68 -1z"/>
 <path d="M560 650 c0 -5 5 -10 11 -10 5 0 7 5 4 10 -3 6 -8 10 -11 10 -2 0 -4 -4 -4 -10z"/>
 <path d="M465 600 c-30 -8 -30 -8 8 -9 59 -2 121 -51 64 -51 -13 0 -32 -9 -41 -19 -15 -17 -16 -26 -6 -81 6 -35 9 -72 6 -84 -6 -26 -48 -51 -101 -61 -40 -8 -40 -8 -12 -17 16 -6 27 -17 27 -28 0 -10 5 -20 12 -22 9 -3 9 -12 -1 -36 -12 -29 -12 -35 4 -52 23 -25 25 -25 91 5 30 14 63 25 74 25 23 0 29 20 26 89 -2 36 -8 57 -17 60 -18 6 -48 43 -49 59 0 27 30 71 52 74 20 3 23 8 21 43 -1 22 -5 56 -8 75 -7 35 -7 35 -63 37 -31 1 -70 -2 -87 -7z"/>
 <path d="M430 569 c0 -6 -6 -9 -14 -6 -28 11 -122 -111 -102 -131 11 -10 140 -10 154 0 14 12 17 32 2 23 -18 -11 -43 43 -37 85 3 22 3 40 1 40 -2 0 -4 -5 -4 -11z"/>
 <path d="M455 520 c3 -5 8 -10 11 -10 2 0 4 5 4 10 0 6 -5 10 -11 10 -5 0 -7 -4 -4 -10z"/>
 <path d="M1 208 l-1 -208 188 1 187 0 -57 18 c-79 26 -136 61 -190 119 -61 65 -82 108 -117 242 -6 25 -9 -26 -10 -172z"/>
 <path d="M410 391 c0 -5 5 -13 10 -16 6 -3 10 -2 10 4 0 5 -4 13 -10 16 -5 3 -10 2 -10 -4z"/>
 <path d="M887 343 c-15 -91 -114 -227 -204 -280 -24 -14 -70 -34 -101 -44 l-57 -18 188 0 187 -1 0 190 c0 105 -2 190 -4 190 -2 0 -6 -17 -9 -37z"/>
 </g>
<g id="layer125" fill="#bdc5c5" stroke="none">
 <path d="M1 713 l0 -188 18 55 c25 79 44 110 102 174 63 69 123 105 209 128 l65 17 -197 0 -198 1 1 -187z"/>
 <path d="M582 881 c83 -27 138 -63 198 -128 57 -62 95 -134 109 -205 6 -30 9 16 10 155 l1 197 -187 -1 -188 0 57 -18z"/>
 <path d="M488 733 c-10 -2 -18 -11 -18 -19 0 -11 10 -14 38 -12 25 2 37 8 37 18 0 15 -27 22 -57 13z"/>
 <path d="M488 598 c-9 -6 -6 -7 8 -3 14 3 30 -3 48 -20 33 -30 40 -32 26 -5 -6 11 -8 25 -5 30 7 12 -59 10 -77 -2z"/>
 <path d="M507 525 c-26 -25 -6 -165 23 -165 8 0 18 43 29 128 7 49 6 52 -15 52 -13 0 -29 -7 -37 -15z"/>
 <path d="M372 514 c-12 -8 -22 -21 -22 -28 0 -8 -7 -19 -15 -26 -9 -7 -13 -15 -10 -18 6 -7 125 -15 125 -9 0 3 -7 18 -15 33 -8 16 -15 37 -15 47 0 21 -19 22 -48 1z"/>
 <path d="M590 510 c0 -7 3 -10 7 -7 3 4 3 10 0 14 -4 3 -7 0 -7 -7z"/>
 <path d="M1 203 l-1 -203 188 1 187 0 -57 18 c-154 50 -264 169 -302 329 -14 55 -14 49 -15 -145z"/>
 <path d="M415 380 c3 -5 8 -10 11 -10 2 0 4 5 4 10 0 6 -5 10 -11 10 -5 0 -7 -4 -4 -10z"/>
 <path d="M887 343 c-15 -91 -114 -227 -204 -280 -24 -14 -70 -34 -101 -44 l-57 -18 188 0 187 -1 0 190 c0 105 -2 190 -4 190 -2 0 -6 -17 -9 -37z"/>
 <path d="M524 337 c-4 -10 -32 -22 -80 -33 -77 -17 -102 -31 -35 -19 32 5 39 3 44 -12 4 -10 12 -26 19 -35 11 -15 8 -22 -17 -48 -15 -16 -26 -33 -22 -36 9 -10 57 -13 57 -5 0 4 24 14 54 21 l54 13 4 64 c2 52 0 67 -13 74 -9 4 -20 5 -24 1 -3 -4 -13 2 -21 12 -12 17 -14 17 -20 3z"/>
 </g>
<g id="layer126" fill="#f0baa7" stroke="none">
 <path d="M1 713 c1 -137 3 -177 10 -149 34 146 181 290 329 322 50 11 36 12 -142 13 l-198 1 1 -187z"/>
 <path d="M575 886 c69 -22 127 -56 183 -109 62 -60 97 -114 123 -195 l18 -57 0 188 1 187 -182 -1 c-163 0 -179 -2 -143 -13z"/>
 <path d="M488 733 c-10 -2 -18 -11 -18 -19 0 -11 10 -14 38 -12 25 2 37 8 37 18 0 15 -27 22 -57 13z"/>
 <path d="M488 598 c-9 -6 -6 -7 8 -3 14 3 30 -3 48 -20 33 -30 40 -32 26 -5 -6 11 -8 25 -5 30 7 12 -59 10 -77 -2z"/>
 <path d="M507 525 c-26 -25 -6 -165 23 -165 8 0 18 43 29 128 7 49 6 52 -15 52 -13 0 -29 -7 -37 -15z"/>
 <path d="M372 514 c-12 -8 -22 -21 -22 -28 0 -8 -7 -19 -15 -26 -9 -7 -13 -15 -10 -18 6 -7 125 -15 125 -9 0 3 -7 18 -15 33 -8 16 -15 37 -15 47 0 21 -19 22 -48 1z"/>
 <path d="M590 510 c0 -7 3 -10 7 -7 3 4 3 10 0 14 -4 3 -7 0 -7 -7z"/>
 <path d="M1 203 l-1 -203 188 1 c170 1 183 2 141 13 -152 42 -274 172 -313 334 -14 55 -14 49 -15 -145z"/>
 <path d="M415 380 c3 -5 8 -10 11 -10 2 0 4 5 4 10 0 6 -5 10 -11 10 -5 0 -7 -4 -4 -10z"/>
 <path d="M890 346 c0 -13 -16 -55 -35 -93 -57 -114 -167 -206 -285 -239 -40 -11 -26 -12 143 -13 l187 -1 0 185 c0 102 -2 185 -5 185 -3 0 -5 -11 -5 -24z"/>
 <path d="M524 337 c-4 -10 -32 -22 -80 -33 -77 -17 -102 -31 -35 -19 32 5 39 3 44 -12 4 -10 12 -26 19 -35 11 -15 8 -22 -17 -48 -15 -16 -26 -33 -22 -36 9 -10 57 -13 57 -5 0 4 24 14 54 21 l54 13 4 64 c2 52 0 67 -13 74 -9 4 -20 5 -24 1 -3 -4 -13 2 -21 12 -12 17 -14 17 -20 3z"/>
 </g>
<g id="layer127" fill="#d7c6ba" stroke="none">
 <path d="M1 713 c1 -137 3 -177 10 -149 34 146 181 290 329 322 50 11 36 12 -142 13 l-198 1 1 -187z"/>
 <path d="M575 886 c69 -22 127 -56 183 -109 62 -60 97 -114 123 -195 l18 -57 0 188 1 187 -182 -1 c-163 0 -179 -2 -143 -13z"/>
 <path d="M489 714 c-11 -14 -10 -16 9 -12 13 1 23 7 23 13 1 17 -17 16 -32 -1z"/>
 <path d="M530 600 c-13 -8 -13 -10 2 -10 9 0 20 5 23 10 8 13 -5 13 -25 0z"/>
 <path d="M509 524 c-23 -28 -5 -165 20 -150 5 3 11 27 14 53 3 26 9 63 13 81 6 28 4 32 -14 32 -11 0 -25 -7 -33 -16z"/>
 <path d="M360 480 l-21 -30 22 2 c31 4 59 28 52 44 -8 23 -30 16 -53 -16z"/>
 <path d="M1 203 l-1 -203 188 1 c170 1 183 2 141 13 -152 42 -274 172 -313 334 -14 55 -14 49 -15 -145z"/>
 <path d="M415 380 c3 -5 8 -10 11 -10 2 0 4 5 4 10 0 6 -5 10 -11 10 -5 0 -7 -4 -4 -10z"/>
 <path d="M890 346 c0 -13 -16 -55 -35 -93 -57 -114 -167 -206 -285 -239 -40 -11 -26 -12 143 -13 l187 -1 0 185 c0 102 -2 185 -5 185 -3 0 -5 -11 -5 -24z"/>
 <path d="M520 302 c-26 -12 -23 -41 4 -48 29 -7 29 -19 3 -46 -23 -24 -16 -32 19 -24 21 6 25 11 20 31 -4 14 -1 27 6 32 17 11 20 46 5 55 -14 9 -37 9 -57 0z m50 -42 c0 -5 -2 -10 -4 -10 -3 0 -8 5 -11 10 -3 6 -1 10 4 10 6 0 11 -4 11 -10z"/>
 <path d="M474 168 c-4 -7 -3 -8 4 -4 12 7 16 16 8 16 -3 0 -8 -5 -12 -12z"/>
 </g>
<g id="layer128" fill="#f6c5b2" stroke="none">
 <path d="M1 713 c1 -137 3 -177 10 -149 34 143 178 287 324 322 45 11 30 12 -142 13 l-193 1 1 -187z"/>
 <path d="M585 882 c145 -50 250 -156 296 -300 l18 -57 0 188 1 187 -182 0 -183 -1 50 -17z"/>
 <path d="M489 714 c-11 -14 -10 -16 9 -12 13 1 23 7 23 13 1 17 -17 16 -32 -1z"/>
 <path d="M530 600 c-13 -8 -13 -10 2 -10 9 0 20 5 23 10 8 13 -5 13 -25 0z"/>
 <path d="M509 524 c-23 -28 -5 -165 20 -150 5 3 11 27 14 53 3 26 9 63 13 81 6 28 4 32 -14 32 -11 0 -25 -7 -33 -16z"/>
 <path d="M360 480 l-21 -30 22 2 c31 4 59 28 52 44 -8 23 -30 16 -53 -16z"/>
 <path d="M1 198 l-1 -198 188 1 c132 1 176 4 149 10 -148 35 -285 175 -323 332 -11 47 -12 34 -13 -145z"/>
 <path d="M890 348 c0 -41 -59 -148 -112 -204 -58 -61 -116 -100 -193 -126 l-50 -17 183 -1 182 0 0 185 c0 102 -2 185 -5 185 -3 0 -5 -10 -5 -22z"/>
 <path d="M520 302 c-26 -12 -23 -41 4 -48 29 -7 29 -19 3 -46 -23 -24 -16 -32 19 -24 21 6 25 11 20 31 -4 14 -1 27 6 32 17 11 20 46 5 55 -14 9 -37 9 -57 0z m50 -42 c0 -5 -2 -10 -4 -10 -3 0 -8 5 -11 10 -3 6 -1 10 4 10 6 0 11 -4 11 -10z"/>
 <path d="M474 168 c-4 -7 -3 -8 4 -4 12 7 16 16 8 16 -3 0 -8 -5 -12 -12z"/>
 </g>
<g id="layer129" fill="#edd9d1" stroke="none">
 <path d="M1 713 c1 -137 3 -177 10 -149 34 143 178 287 324 322 45 11 30 12 -142 13 l-193 1 1 -187z"/>
 <path d="M585 882 c145 -50 250 -156 296 -300 l18 -57 0 188 1 187 -182 0 -183 -1 50 -17z"/>
 <path d="M512 518 c-12 -12 -6 -96 8 -111 6 -7 30 86 30 115 0 12 -24 10 -38 -4z"/>
 <path d="M1 198 l-1 -198 188 1 c132 1 176 4 149 10 -148 35 -285 175 -323 332 -11 47 -12 34 -13 -145z"/>
 <path d="M890 348 c0 -41 -59 -148 -112 -204 -58 -61 -116 -100 -193 -126 l-50 -17 183 -1 182 0 0 185 c0 102 -2 185 -5 185 -3 0 -5 -10 -5 -22z"/>
 </g>
<g id="layer130" fill="#fefefe" stroke="none">
 <path d="M0 718 l1 -183 20 59 c48 139 146 237 284 285 l60 20 -182 1 -183 0 0 -182z"/>
 <path d="M595 879 c142 -49 244 -155 291 -304 11 -36 13 -20 13 143 l1 182 -182 0 -183 -1 60 -20z"/>
 <path d="M1 188 l-1 -188 183 0 182 1 -60 20 c-143 49 -261 176 -294 316 -6 27 -9 -17 -10 -149z"/>
 <path d="M890 341 c0 -35 -72 -161 -119 -210 -48 -49 -122 -93 -196 -117 -36 -11 -20 -13 143 -13 l182 -1 0 180 c0 99 -2 180 -5 180 -3 0 -5 -8 -5 -19z"/>
 </g>

</svg>